# AST/ASF file generated using VICON BodyLanguage
# -----------------------------------------------
:version 1.10
:name VICON
:units
  mass 1.0
  length 0.45
  angle deg
:documentation
   .ast/.asf automatically generated from VICON data using
   VICON BodyBuilder and BodyLanguage model FoxedUp or BRILLIANT.MOD
:root
   order TX TY TZ RX RY RZ
   axis XYZ
   position 0 0 0  
   orientation 0 0 0 
:bonedata
  begin
     id 1 
     name lhipjoint
     direction 0.671379 -0.66392 0.329334 
     length 2.38647 
     axis 0 0 0  XYZ
  end
  begin
     id 2 
     name lfemur
     direction 0.34202 -0.939693 0  
     length 6.48179  
     axis 0 0 20  XYZ
    dof rx ry rz
    limits (-160.0 20.0)
           (-70.0 70.0)
           (-60.0 70.0)
  end
  begin
     id 3 
     name ltibia
     direction 0.34202 -0.939693 0   
     length 6.86524   
     axis 0 0 20   XYZ
    dof rx
    limits (-10.0 170.0)
  end
  begin
     id 4 
     name lfoot
     direction 0.204886 -0.562919 0.800715   
     length 1.73031   
     axis -90 7.62852e-016 20   XYZ
    dof rx rz
    limits (-45.0 90.0)
           (-70.0 20.0)
  end
  begin
     id 5 
     name ltoes
     direction 1.53548e-011 -4.21841e-011 1   
     length 0.828161   
     axis -90 7.62852e-016 20   XYZ
    dof rx
    limits (-90.0 20.0)
  end
  begin
     id 6 
     name rhipjoint
     direction -0.662732 -0.670855 0.332775   
     length 2.3618  
     axis 0 0 0  XYZ 
  end
  begin
     id 7 
     name rfemur
     direction -0.34202 -0.939693 0   
     length 6.3025   
     axis 0 0 -20   XYZ
    dof rx ry rz
    limits (-160.0 20.0)
           (-70.0 70.0)
           (-70.0 60.0)
  end
  begin
     id 8 
     name rtibia
     direction -0.34202 -0.939693 0   
     length 6.8732   
     axis 0 0 -20   XYZ
    dof rx
    limits (-10.0 170.0)
 end
 begin
     id 9 
     name rfoot
     direction -0.173856 -0.477665 0.861168   
     length 1.54784  
     axis -90 -7.62852e-016 -20   XYZ
    dof rx rz
    limits (-45.0 90.0)
           (-20.0 70.0)
  end
  begin
     id 10 
     name rtoes
     direction -1.53562e-011 -4.21802e-011 1   
     length 0.759618   
     axis -90 -7.62852e-016 -20   XYZ
    dof rx
    limits (-90.0 20.0)
  end
  begin
     id 11 
     name lowerback
     direction -0.0278357 0.999497 -0.0151789   
     length 1.97203   
     axis 0 0 0   XYZ
    dof rx ry rz
    limits (-20.0 45.0)
           (-30.0 30.0)
           (-30.0 30.0)
  end
  begin
     id 12 
     name upperback
     direction -0.00360622 0.997542 0.0699804   
     length 1.94709   
     axis 0 0 0   XYZ
    dof rx ry rz
    limits (-20.0 45.0)
           (-30.0 30.0)
           (-30.0 30.0)
  end
  begin
     id 13 
     name thorax
     direction 0.00907706 0.997048 0.0762461   
     length 1.95722   
     axis 0 0 0   XYZ
    dof rx ry rz
    limits (-20.0 45.0)
           (-30.0 30.0)
           (-30.0 30.0)
  end
  begin
     id 14 
     name lowerneck
     direction -0.0481835 0.99872 -0.0153927   
     length 1.63078   
     axis 0 0 0   XYZ
    dof rx ry rz
    limits (-20.0 45.0)
           (-30.0 30.0)
           (-30.0 30.0)
  end
  begin
     id 15 
     name upperneck
     direction 0.0859716 0.979226 -0.183644   
     length 1.62591   
     axis 0 0 0   XYZ
    dof rx ry rz
    limits (-20.0 45.0)
           (-30.0 30.0)
           (-30.0 30.0)
  end
  begin
     id 16
     name head
     direction 0.0324821 0.997629 -0.0606773  
     length 1.64811  
     axis 0 0 0   XYZ
    dof rx ry rz
    limits (-20.0 45.0)
           (-30.0 30.0)
           (-30.0 30.0)
  end
  begin
     id 17 
     name lclavicle
     direction 0.939609 0.311019 0.142835  
     length 3.70647  
     axis 0 0 0   XYZ
    dof ry rz
    limits (-20.0 10.0)
           (0.0 20.0)
  end
  begin
     id 18 
     name lhumerus
     direction 1 -4.48963e-011 -1.59838e-027   
     length 4.59207   
     axis 180 -30 -90   XYZ
    dof rx ry rz
    limits (-60.0 90.0)
           (-90.0 90.0)
           (-90.0 90.0)
  end
  begin
     id 19
     name lradius
     direction 1 -4.48957e-011 -1.3483e-026   
     length 2.98109   
     axis 180 -30 -90   XYZ
    dof rx
    limits (-10.0 170.0)
  end
  begin
     id 20
     name lwrist
     direction 1 -4.48954e-011 -3.11579e-026   
     length 1.49055   
     axis 2.00652e-014 90 90   XYZ
    dof ry
    limits (-180.0 0.0)
 end
  begin
     id 21 
     name lhand
     direction 1 -4.4911e-011 -6.23158e-026   
     length 0.480203   
     axis 3.97628e-014 90 90   XYZ
    dof rx rz
    limits (-90.0 90.0)
           (-45.0 45.0)
  end
  begin
     id 22 
     name lfingers
     direction 1 -4.48893e-011 -1.24632e-025   
     length 0.387152   
     axis 7.95256e-014 90 90   XYZ
    dof rx
    limits (0.0 90.0)
  end
  begin
     id 23
     name lthumb
     direction 0.707107 -6.35013e-011 0.707107   
     length 0.555875   
     axis -90 45 2.85299e-015   XYZ
    dof rx rz
    limits (-45.0 45.0)
           (-45.0 45.0)
  end
  begin
     id 24 
     name rclavicle
     direction -0.950396 0.30392 0.0661859   
     length 3.70894  
     axis 0 0 0   XYZ 
    dof ry rz
    limits (-10.0 20.0)
           (-20.0 0.0)
  end
  begin
     id 25 
     name rhumerus
     direction -1 -4.48957e-011 -2.96677e-027  
     length 4.76508   
     axis 180 30 90   XYZ
    dof rx ry rz
    limits (-90.0 60.0)
           (-90.0 90.0)
           (-90.0 90.0)
  end
  begin
     id 26 
     name rradius
     direction -1 -4.48974e-011 -1.44501e-026   
     length 2.78902   
     axis 180 30 90   XYZ
    dof rx
    limits (-10.0 170.0)
  end
  begin
     id 27 
     name rwrist
     direction -1 -4.48978e-011 -3.11579e-026   
     length 1.39451   
     axis 2.00652e-014 -90 -90   XYZ
    dof ry
    limits (-180.0 0.0)
  end
  begin
     id 28
     name rhand
     direction -1 -4.48956e-011 -6.23158e-026   
     length 0.721303   
     axis 3.97628e-014 -90 -90   XYZ
    dof rx rz
    limits (-90.0 90.0)
           (-45.0 45.0)
  end
  begin
     id 29
     name rfingers
     direction -1 -4.4899e-011 -1.24632e-025   
     length 0.581533   
     axis 7.95256e-014 -90 -90   XYZ
    dof rx
    limits (0.0 90.0)
  end
  begin
     id 30
     name rthumb
     direction -0.707107 -6.34911e-011 0.707107   
     length 0.834968   
     axis -90 -45 -2.85299e-015   XYZ
    dof rx rz
    limits (-45.0 45.0)
           (-45.0 45.0)
  end
:hierarchy
  begin
    root lhipjoint rhipjoint lowerback
    lhipjoint lfemur
    lfemur ltibia
    ltibia lfoot
    lfoot ltoes
    rhipjoint rfemur
    rfemur rtibia
    rtibia rfoot
    rfoot rtoes
    lowerback upperback
    upperback thorax
    thorax lowerneck lclavicle rclavicle
    lowerneck upperneck
    upperneck head
    lclavicle lhumerus
    lhumerus lradius
    lradius lwrist
    lwrist lhand lthumb
    lhand lfingers
    rclavicle rhumerus
    rhumerus rradius
    rradius rwrist
    rwrist rhand rthumb
    rhand rfingers
  end

#!OML:ASF I:\salsa\salsa 7_09\Patient 1\Session 1\dancerfemale.ASF
:FULLY-SPECIFIED
:DEGREES
725
root 4.37168 16.5143 -2.61914 -351.062 188.843 714.684
lowerback -7.40854 6.67561 -6.43712
upperback -9.93503 7.85767 -2.44366
thorax -6.92523 3.76439 1.08417
lowerneck 0.897466 -1.80869 -14.267
upperneck 19.8292 -4.94909 10.33
head 6.39249 -3.29081 5.44179
rclavicle 1.28812e-013 1.51076e-014
rhumerus 22.9305 10.2826 -94.7574
rradius 124.951
rwrist -119.964
rhand 27.1419 290.2
rfingers 7.12502
rthumb 51.12 90.4141
lclavicle 1.28812e-013 1.51076e-014
lhumerus -43.6589 26.7644 60.9803
lradius 118.16
lwrist 18.8484
lhand -6.25881 42.5875
lfingers 7.12502
lthumb 19.5835 71.6212
rfemur -24.3544 13.5503 -5.70278
rtibia 27.4394
rfoot 5.00489 24.4284
rtoes -24.714
lfemur -29.621 -21.9752 -13.5983
ltibia 43.0655
lfoot -17.657 -28.1715
ltoes -39.2425
726
root 4.83608 16.6092 -2.72074 -350.802 196.4 716.422
lowerback -7.42537 6.51173 -6.38881
upperback -10.1783 7.72767 -1.80416
thorax -7.26059 3.77002 1.70088
lowerneck 1.74838 -3.31034 -15.3053
upperneck 19.3321 -7.00256 10.265
head 6.41069 -4.33429 5.47073
rclavicle -5.47652e-014 -4.85035e-014
rhumerus 23.825 5.30067 -98.655
rradius 125.93
rwrist -127.539
rhand 16.211 282.095
rfingers 7.12502
rthumb 40.9903 102.825
lclavicle -5.47652e-014 -4.85035e-014
lhumerus -42.4174 25.5908 64.8053
lradius 118.409
lwrist 15.29
lhand -3.11455 41.862
lfingers 7.12502
lthumb 22.604 70.5585
rfemur -19.9168 12.9303 -1.7588
rtibia 24.4606
rfoot 6.66793 20.8079
rtoes -28.9192
lfemur -30.7503 -24.0339 -10.2677
ltibia 43.4253
lfoot -16.8706 -22.1333
ltoes -39.298
727
root 5.27331 16.6612 -2.83773 -350.818 204.071 717.999
lowerback -7.73274 6.31991 -6.31791
upperback -10.1729 7.605 -1.25382
thorax -7.13824 3.76988 2.26694
lowerneck 2.57157 -4.99797 -14.946
upperneck 18.293 -9.03136 8.90981
head 6.169 -5.30658 4.82766
rclavicle -3.53837e-014 -2.82274e-014
rhumerus 25.5024 -1.19539 -102.616
rradius 127.754
rwrist -138.886
rhand 0.97336 273.106
rfingers 7.12502
rthumb 26.5223 115.057
lclavicle -3.53837e-014 -2.82274e-014
lhumerus -40.9538 24.2475 68.7119
lradius 118.726
lwrist 12.3057
lhand 0.112499 41.181
lfingers 7.12502
lthumb 25.6981 69.4662
rfemur -15.739 9.85102 2.6604
rtibia 21.9301
rfoot 6.63822 17.4334
rtoes -31.3407
lfemur -31.6331 -24.1643 -8.58428
ltibia 44.0961
lfoot -15.5566 -12.2658
ltoes -37.5243
728
root 5.6881 16.6853 -2.95097 -350.604 212.23 718.937
lowerback -7.61164 5.84406 -7.07439
upperback -10.5984 7.01486 -0.66734
thorax -7.82696 3.59711 3.24813
lowerneck 3.71061 -6.59097 -15.6749
upperneck 17.6867 -11.1667 8.13669
head 6.07841 -6.41244 4.567
rclavicle -7.49418e-014 -3.61788e-014
rhumerus 25.9584 -0.834527 -102.582
rradius 128.909
rwrist -134.88
rhand 2.94525 273.228
rfingers 7.12502
rthumb 28.4082 114.636
lclavicle -7.49418e-014 -3.61788e-014
lhumerus -40.8283 22.732 72.135
lradius 119.262
lwrist 9.54147
lhand 3.38688 40.3045
lfingers 7.12502
lthumb 28.8302 68.0973
rfemur -12.3562 5.12583 6.58381
rtibia 20.022
rfoot 5.50593 12.8955
rtoes -30.4075
lfemur -32.1752 -22.425 -8.892
ltibia 44.9457
lfoot -15.8697 0.456326
ltoes -41.5534
729
root 6.05521 16.6997 -3.05072 -350.306 220.258 719.971
lowerback -8.01988 5.58511 -7.4476
upperback -11.1022 6.69817 -0.406793
thorax -8.22154 3.50741 3.73759
lowerneck 5.15144 -8.26643 -16.0662
upperneck 17.1518 -13.5582 7.62529
head 5.98092 -7.62589 4.33515
rclavicle 6.36111e-014 3.97569e-014
rhumerus 25.875 4.17137 -99.3281
rradius 128.153
rwrist -120.64
rhand 19.4236 281.48
rfingers 7.12502
rthumb 43.9977 102.404
lclavicle 6.36111e-014 3.97569e-014
lhumerus -40.7657 20.3471 75.4273
lradius 119.809
lwrist 7.40248
lhand 6.21662 39.5449
lfingers 7.12502
lthumb 31.5297 66.8441
rfemur -10.2842 -0.420088 10.5124
rtibia 18.7754
rfoot 3.99581 9.09885
rtoes -31.7833
lfemur -32.8047 -19.129 -10.0557
ltibia 46.1083
lfoot -16.6563 9.84963
ltoes -33.5663
730
root 6.40026 16.6865 -3.12741 -350.074 228.755 721.717
lowerback -8.79289 5.10307 -7.38555
upperback -11.8569 6.05653 -0.0292393
thorax -8.59936 3.22152 4.14711
lowerneck 6.55469 -9.86601 -16.8278
upperneck 16.7672 -15.9104 7.30943
head 5.97697 -8.83741 4.21982
rclavicle 7.39479e-014 5.68524e-014
rhumerus 26.0352 5.89968 -97.8075
rradius 128.669
rwrist -110.731
rhand 29.2329 285.423
rfingers 7.12502
rthumb 53.016 94.0595
lclavicle 7.39479e-014 5.68524e-014
lhumerus -41.3124 17.9683 78.4736
lradius 120.499
lwrist 5.77919
lhand 8.58488 38.6929
lfingers 7.12502
lthumb 33.7829 65.5245
rfemur -9.97196 -5.47345 14.764
rtibia 18.3484
rfoot 2.92486 3.95809
rtoes -29.9478
lfemur -33.9574 -14.6175 -11.261
ltibia 47.7356
lfoot -17.1242 16.3405
ltoes -21.8173
731
root 6.72902 16.6915 -3.20086 -351.217 236.705 724.374
lowerback -9.00772 4.76199 -7.27492
upperback -12.7112 5.57324 0.483847
thorax -9.44764 3.03792 4.62216
lowerneck 7.82392 -11.5336 -17.3344
upperneck 16.7362 -18.3186 6.55856
head 6.06443 -10.0893 3.90451
rclavicle 9.28324e-014 6.75868e-014
rhumerus 26.2875 5.60091 -97.2855
rradius 131.728
rwrist -103.09
rhand 29.8397 284.443
rfingers 7.12502
rthumb 53.5628 94.6862
lclavicle 9.28324e-014 6.75868e-014
lhumerus -42.4908 15.6956 81.2896
lradius 121.276
lwrist 4.63038
lhand 11.32 37.6334
lfingers 7.12502
lthumb 36.3772 63.8563
rfemur -10.5203 -8.56542 19.1117
rtibia 18.8018
rfoot 2.04848 -1.38118
rtoes -29.9258
lfemur -34.5524 -8.59915 -12.6316
ltibia 49.4852
lfoot -18.9253 18.7874
ltoes -13.2898
732
root 7.05579 16.6751 -3.2682 -354.319 244.178 728.615
lowerback -8.53804 4.54297 -7.00256
upperback -13.7586 5.19762 0.939805
thorax -10.9211 2.91166 4.90089
lowerneck 8.97106 -13.1226 -17.85
upperneck 17.0408 -20.6981 6.04787
head 6.29417 -11.3302 3.63992
rclavicle -1.94809e-014 1.94809e-014
rhumerus 26.245 6.02508 -96.6305
rradius 134.398
rwrist -95.1569
rhand 31.3534 284.57
rfingers 7.12502
rthumb 54.9195 93.6271
lclavicle -1.94809e-014 1.94809e-014
lhumerus -44.2867 13.4755 83.587
lradius 122.163
lwrist 4.40696
lhand 14.6001 36.473
lfingers 7.12502
lthumb 39.4751 61.8552
rfemur -11.7016 -9.41258 22.8907
rtibia 20.0569
rfoot 0.952972 -7.78061
rtoes -22.6709
lfemur -34.7978 -0.672809 -13.989
ltibia 51.0645
lfoot -19.7345 17.2652
ltoes -12.5066
733
root 7.34389 16.6968 -3.32537 -355.825 251.668 730.459
lowerback -8.24443 4.17765 -8.22247
upperback -14.2719 4.71169 0.860068
thorax -11.8027 2.85492 5.46278
lowerneck 10.4354 -14.7591 -18.6021
upperneck 16.1347 -23.2636 6.7142
head 6.26662 -12.5838 3.79104
rclavicle -4.92986e-014 -2.14687e-014
rhumerus 27.017 7.01606 -95.5763
rradius 136.42
rwrist -86.9579
rhand 32.5468 285.234
rfingers 7.12502
rthumb 55.9809 92.1704
lclavicle -4.92986e-014 -2.14687e-014
lhumerus -45.1782 11.3037 86.0524
lradius 122.924
lwrist 4.28886
lhand 17.5469 35.7084
lfingers 7.12502
lthumb 42.2434 60.2164
rfemur -12.4952 -9.66048 23.8596
rtibia 21.2851
rfoot -0.659694 -11.1865
rtoes -18.1372
lfemur -33.8393 3.86486 -16.3171
ltibia 51.7963
lfoot -19.464 18.5559
ltoes -5.6181
